<svg width="17" height="17" viewBox="0 0 17 17" fill="none" xmlns="http://www.w3.org/2000/svg">
<path d="M8.33332 0.868057C8.62097 0.868057 8.85415 1.10124 8.85415 1.38889V2.08333C8.85415 2.37098 8.62097 2.60417 8.33332 2.60417C8.04567 2.60417 7.81249 2.37098 7.81249 2.08333V1.38889C7.81249 1.10124 8.04567 0.868057 8.33332 0.868057Z" fill="#E9EAF0"/>
<path fill-rule="evenodd" clip-rule="evenodd" d="M4.34026 8.33333C4.34026 6.12803 6.12802 4.34028 8.33332 4.34028C10.5386 4.34028 12.3264 6.12803 12.3264 8.33333C12.3264 10.5386 10.5386 12.3264 8.33332 12.3264C6.12802 12.3264 4.34026 10.5386 4.34026 8.33333ZM8.33332 5.38195C6.70331 5.38195 5.38193 6.70333 5.38193 8.33333C5.38193 9.96334 6.70331 11.2847 8.33332 11.2847C9.96333 11.2847 11.2847 9.96334 11.2847 8.33333C11.2847 6.70333 9.96333 5.38195 8.33332 5.38195Z" fill="#E9EAF0"/>
<path d="M3.79115 3.0546C3.58775 2.8512 3.25798 2.8512 3.05458 3.0546C2.85118 3.258 2.85118 3.58777 3.05458 3.79117L3.54563 4.28222C3.74903 4.48562 4.0788 4.48562 4.2822 4.28222C4.48559 4.07882 4.48559 3.74905 4.2822 3.54565L3.79115 3.0546Z" fill="#E9EAF0"/>
<path d="M15.7986 8.33333C15.7986 8.62098 15.5654 8.85417 15.2778 8.85417H14.5833C14.2957 8.85417 14.0625 8.62098 14.0625 8.33333C14.0625 8.04569 14.2957 7.8125 14.5833 7.8125H15.2778C15.5654 7.8125 15.7986 8.04569 15.7986 8.33333Z" fill="#E9EAF0"/>
<path d="M13.6121 3.79117C13.8154 3.58777 13.8154 3.25799 13.6121 3.0546C13.4087 2.8512 13.0789 2.8512 12.8755 3.0546L12.3844 3.54564C12.181 3.74904 12.181 4.07881 12.3844 4.28221C12.5878 4.48561 12.9176 4.48561 13.121 4.28221L13.6121 3.79117Z" fill="#E9EAF0"/>
<path d="M8.33332 14.0625C8.62097 14.0625 8.85415 14.2957 8.85415 14.5833V15.2778C8.85415 15.5654 8.62097 15.7986 8.33332 15.7986C8.04567 15.7986 7.81249 15.5654 7.81249 15.2778V14.5833C7.81249 14.2957 8.04567 14.0625 8.33332 14.0625Z" fill="#E9EAF0"/>
<path d="M13.1211 12.3845C12.9177 12.1811 12.5879 12.1811 12.3845 12.3845C12.1811 12.5879 12.1811 12.9176 12.3845 13.121L12.8755 13.6121C13.0789 13.8155 13.4087 13.8155 13.6121 13.6121C13.8155 13.4087 13.8155 13.0789 13.6121 12.8755L13.1211 12.3845Z" fill="#E9EAF0"/>
<path d="M2.60415 8.33333C2.60415 8.62098 2.37097 8.85417 2.08332 8.85417H1.38888C1.10123 8.85417 0.868042 8.62098 0.868042 8.33333C0.868042 8.04569 1.10123 7.8125 1.38888 7.8125H2.08332C2.37097 7.8125 2.60415 8.04569 2.60415 8.33333Z" fill="#E9EAF0"/>
<path d="M4.28215 13.121C4.48555 12.9176 4.48555 12.5879 4.28215 12.3845C4.07875 12.1811 3.74898 12.1811 3.54558 12.3845L3.05453 12.8755C2.85114 13.0789 2.85114 13.4087 3.05453 13.6121C3.25793 13.8155 3.58771 13.8155 3.7911 13.6121L4.28215 13.121Z" fill="#E9EAF0"/>
</svg>
